<svg width="40" height="41" viewBox="0 0 40 41" fill="none" xmlns="http://www.w3.org/2000/svg">
<path d="M7.30376 0.21582C3.2578 0.21582 0 3.49706 0 7.57212V33.1473C0 37.2224 3.2578 40.5036 7.30376 40.5036H21.0663V24.7536H16.9313V19.0831H21.0663V14.2385C21.0663 10.4323 23.5094 6.93759 29.1375 6.93759C31.4162 6.93759 33.1013 7.15793 33.1013 7.15793L32.9688 12.4533C32.9688 12.4533 31.2502 12.4369 29.375 12.4369C27.3454 12.4369 27.02 13.3788 27.02 14.9423V19.0831H33.13L32.8638 24.7536H27.02V40.5037H32.6962C36.7422 40.5037 40 37.2224 40 33.1474V7.57217C40 3.4971 36.7422 0.215861 32.6962 0.215861H7.30372L7.30376 0.21582Z" fill="white"/>
</svg>
