<svg width="40" height="41" viewBox="0 0 40 41" fill="none" xmlns="http://www.w3.org/2000/svg">
<path d="M20 0.21582C25.434 0.21582 26.112 0.235964 28.244 0.336684C30.374 0.437403 31.824 0.773806 33.1 1.27337C34.42 1.78503 35.532 2.47798 36.644 3.59596C37.661 4.60295 38.4479 5.82104 38.95 7.16546C39.444 8.44863 39.78 9.91107 39.88 12.0564C39.974 14.2037 40 14.8866 40 20.3597C40 25.8328 39.98 26.5157 39.88 28.663C39.78 30.8083 39.444 32.2688 38.95 33.554C38.4494 34.8991 37.6622 36.1175 36.644 37.1234C35.6439 38.1474 34.4346 38.9399 33.1 39.446C31.826 39.9436 30.374 40.282 28.244 40.3827C26.112 40.4774 25.434 40.5036 20 40.5036C14.566 40.5036 13.888 40.4834 11.756 40.3827C9.626 40.282 8.176 39.9436 6.9 39.446C5.56465 38.9414 4.35505 38.1487 3.356 37.1234C2.33881 36.1166 1.55186 34.8985 1.05 33.554C0.554 32.2708 0.22 30.8083 0.12 28.663C0.0259999 26.5157 0 25.8328 0 20.3597C0 14.8866 0.0199999 14.2037 0.12 12.0564C0.22 9.90906 0.554 8.45064 1.05 7.16546C1.55047 5.82021 2.33761 4.60179 3.356 3.59596C4.35534 2.57111 5.56486 1.77844 6.9 1.27337C8.176 0.773806 9.624 0.437403 11.756 0.336684C13.888 0.242007 14.566 0.21582 20 0.21582ZM20 10.2878C17.3478 10.2878 14.8043 11.3489 12.9289 13.2378C11.0536 15.1266 10 17.6885 10 20.3597C10 23.031 11.0536 25.5928 12.9289 27.4816C14.8043 29.3705 17.3478 30.4316 20 30.4316C22.6522 30.4316 25.1957 29.3705 27.0711 27.4816C28.9464 25.5928 30 23.031 30 20.3597C30 17.6885 28.9464 15.1266 27.0711 13.2378C25.1957 11.3489 22.6522 10.2878 20 10.2878ZM33 9.78417C33 9.11635 32.7366 8.47589 32.2678 8.00368C31.7989 7.53147 31.163 7.26618 30.5 7.26618C29.837 7.26618 29.2011 7.53147 28.7322 8.00368C28.2634 8.47589 28 9.11635 28 9.78417C28 10.452 28.2634 11.0924 28.7322 11.5647C29.2011 12.0369 29.837 12.3022 30.5 12.3022C31.163 12.3022 31.7989 12.0369 32.2678 11.5647C32.7366 11.0924 33 10.452 33 9.78417ZM20 14.3165C21.5913 14.3165 23.1174 14.9532 24.2426 16.0865C25.3679 17.2199 26 18.757 26 20.3597C26 21.9625 25.3679 23.4996 24.2426 24.6329C23.1174 25.7662 21.5913 26.4029 20 26.4029C18.4087 26.4029 16.8826 25.7662 15.7574 24.6329C14.6321 23.4996 14 21.9625 14 20.3597C14 18.757 14.6321 17.2199 15.7574 16.0865C16.8826 14.9532 18.4087 14.3165 20 14.3165Z" fill="white"/>
</svg>
