<svg width="48" height="41" viewBox="0 0 48 41" fill="none" xmlns="http://www.w3.org/2000/svg">
<path d="M46.6377 6.65883C46.2013 3.89023 43.6883 1.47079 40.9071 1.14982C29.5573 -0.0958856 18.1068 -0.0955111 6.75712 1.15094C3.98586 1.47078 1.47288 3.88979 1.03429 6.6689C-0.345284 15.7467 -0.34476 24.9831 1.03584 34.0608C1.47266 36.8293 3.98586 39.2486 6.76644 39.5691C12.4355 40.192 18.1341 40.5039 23.8368 40.5036C29.5395 40.5039 35.238 40.192 40.9071 39.5691L40.9162 39.5682C43.6877 39.2488 46.2011 36.8296 46.6395 34.0502C48.019 24.9726 48.0184 15.7363 46.6377 6.65883ZM31.9285 21.8483L21.2689 29.0058C21.0014 29.1854 20.6905 29.2885 20.3693 29.3041C20.0481 29.3198 19.7288 29.2473 19.4453 29.0945C19.1618 28.9417 18.9248 28.7143 18.7596 28.4365C18.5943 28.1586 18.507 27.8409 18.507 27.517V13.2021C18.507 12.8782 18.5943 12.5604 18.7596 12.2826C18.9248 12.0047 19.1618 11.7773 19.4454 11.6245C19.7289 11.4716 20.0483 11.3992 20.3695 11.4149C20.6907 11.4305 21.0016 11.5337 21.2692 11.7133L31.9287 18.8708C32.172 19.0342 32.3715 19.2556 32.5095 19.5153C32.6475 19.775 32.7197 20.065 32.7197 20.3596C32.7197 20.6541 32.6475 20.9441 32.5095 21.2038C32.3715 21.4635 32.172 21.6849 31.9287 21.8483H31.9285Z" fill="white"/>
</svg>
